<?xml version="1.0" standalone="no"?>
<!DOCTYPE svg PUBLIC "-//W3C//DTD SVG 1.1//EN" "http://www.w3.org/Graphics/SVG/1.1/DTD/svg11.dtd" >
<svg xmlns="http://www.w3.org/2000/svg">
<metadata>Generated by IcoMoon</metadata>
<defs>
<font id="icomoon" horiz-adv-x="1024">
<font-face units-per-em="1024" ascent="960" descent="-64" />
<missing-glyph horiz-adv-x="1024" />
<glyph unicode="&#x20;" horiz-adv-x="512" d="" />
<glyph unicode="&#xe900;" glyph-name="play" horiz-adv-x="841" d="M822.857 479.671c24.382-14.076 24.382-49.265 0-63.342l-768-443.407c-24.381-14.076-54.857 3.518-54.857 31.671v886.812c0 28.153 30.476 45.748 54.857 31.672l768-443.406z" />
<glyph unicode="&#xe901;" glyph-name="right" horiz-adv-x="569" d="M21.662 914.987c22.216 22.216 58.236 22.216 80.453 0l426.761-426.761c22.217-22.217 22.217-58.237 0-80.453l-426.761-426.762c-22.217-22.215-58.237-22.215-80.453 0s-22.217 58.237 0 80.452l386.535 386.536-386.535 386.535c-22.217 22.217-22.217 58.237 0 80.453z" />
<glyph unicode="&#xe902;" glyph-name="left" horiz-adv-x="569" d="M547.227-18.99c-22.217-22.215-58.237-22.215-80.453 0l-426.761 426.764c-22.217 22.217-22.217 58.237 0 80.453l426.761 426.762c22.217 22.217 58.237 22.217 80.453 0s22.215-58.237 0-80.453l-386.534-386.535 386.535-386.533c22.214-22.221 22.214-58.237 0-80.458z" />
<glyph unicode="&#xe903;" glyph-name="facebook" d="M572.253 21.344h-144.458c-24.128 0-43.757 19.494-43.757 43.462v323.642h-84.281c-24.129 0-43.757 19.501-43.757 43.462v138.682c0 23.965 19.628 43.462 43.757 43.462h84.281v69.446c0 68.858 21.77 127.442 62.944 169.408 41.363 42.157 99.168 64.436 167.165 64.436l110.17-0.178c24.090-0.041 43.683-19.537 43.683-43.463v-128.762c0-23.967-19.622-43.463-43.744-43.463l-74.176-0.027c-22.624 0-28.384-4.505-29.616-5.886-2.029-2.29-4.445-8.764-4.445-26.64v-54.865h102.662c7.728 0 15.216-1.894 21.651-5.462 13.882-7.702 22.512-22.272 22.512-38.016l-0.054-138.678c0-23.955-19.629-43.45-43.757-43.45h-103.014v-323.648c0-23.968-19.635-43.462-43.766-43.462zM436.922 73.872h126.208v338.090c0 16.003 13.11 29.021 29.213 29.021h117.565l0.048 120.544h-117.619c-16.102 0-29.206 13.014-29.206 29.018v78.382c0 20.522 2.099 43.86 17.693 61.4 18.845 21.205 48.541 23.652 69.242 23.652l65.053 0.027v110.647l-101.011 0.164c-109.277 0-177.184-69.48-177.184-181.316v-92.956c0-15.994-13.104-29.018-29.21-29.018h-98.828v-120.544h98.828c16.106 0 29.21-13.018 29.21-29.021v-338.090zM724.214 864.639v0z" />
<glyph unicode="&#xe904;" glyph-name="clock" d="M511.997 860.389c-227.724 0-412.331-184.607-412.331-412.331 0-227.722 184.607-412.332 412.331-412.332s412.334 184.61 412.334 412.332c0 227.724-184.61 412.331-412.334 412.331zM14.333 448.058c0 274.852 222.812 497.664 497.664 497.664 274.85 0 497.667-222.812 497.667-497.664 0-274.854-222.817-497.665-497.667-497.665-274.852 0-497.664 222.811-497.664 497.665zM511.997 710.486c23.565 0 42.667-19.102 42.667-42.667v-192.546l127.047-59.068c21.367-9.935 30.635-35.312 20.696-56.679-9.933-21.367-35.305-30.635-56.673-20.702l-151.726 70.544c-15.052 6.998-24.678 22.091-24.678 38.689v219.762c0 23.565 19.103 42.667 42.667 42.667z" />
<glyph unicode="&#xe905;" glyph-name="youtube" d="M837.848 727.016c-214.562 37.579-437.148 37.579-651.71 0-54.056-9.467-95.122-58.163-95.122-116.063v-327.043c0-59.802 42.953-109.056 98.683-116.605l70.179-9.506c167.356-22.665 336.874-22.665 504.23 0l70.178 9.506c55.734 7.549 98.685 56.804 98.685 116.605v327.043c0 57.9-41.068 106.596-95.124 116.063zM174.361 794.259c222.354 38.943 452.913 38.943 675.269 0 87.711-15.362 151.609-93.266 151.609-183.306v-327.043c0-92.484-66.759-171.924-157.787-184.252l-70.178-9.506c-173.437-23.489-349.121-23.489-522.557 0l-70.18 9.506c-91.029 12.328-157.787 91.767-157.787 184.252v327.043c0 90.040 63.9 167.944 151.611 183.306zM414.448 623.806c10.842 6.018 24.094 5.684 34.619-0.873l224.788-140.064c10.001-6.233 16.082-17.184 16.082-28.97s-6.081-22.737-16.082-28.97l-224.788-140.063c-10.524-6.559-23.777-6.895-34.619-0.876s-17.566 17.442-17.566 29.844v280.129c0 12.4 6.724 23.825 17.566 29.843zM465.149 532.477v-157.158l126.109 78.579-126.109 78.579z" />
<glyph unicode="&#xe906;" glyph-name="email" horiz-adv-x="1408" d="M155.26 695.496c-0.379-4.26-0.573-8.574-0.573-12.933v-469.123c0-79.533 64.462-144 144-144h810.625c79.546 0 144.013 64.474 144.064 143.968v469.155c0 4.376-0.198 8.707-0.576 12.984l-517.568-443.54c-17.971-15.405-44.493-15.405-62.464 0l-517.508 443.489zM197.881 785.4l506.119-433.734 506.15 433.764c-25.971 25.446-61.536 41.133-100.774 41.133h-810.689c-39.252 0-74.833-15.699-100.806-41.163zM58.687 682.563c0 132.557 107.442 240 240 240h810.689c132.557 0 240-107.442 240-240v-469.187c-0.083-132.474-107.514-239.936-240.064-239.936h-810.625c-132.557 0-240 107.443-240 240v469.123z" />
<glyph unicode="&#xe907;" glyph-name="call" d="M162.169 846.795c-27.033 0-48.919-21.886-48.919-48.919v-39.796c0-175.629 58.181-347.726 173.689-477.169l0.051-0.056c9.152-10.301 18.604-20.331 28.36-30.134 10.089-10.026 20.361-19.759 30.866-29.091l0.047-0.042c129.496-115.47 301.594-173.652 477.224-173.652h39.796c27.034 0 48.919 21.886 48.919 48.919v129.489c0 14.592-10.184 27.201-24.478 30.259-0.014 0.005-0.033 0.009-0.047 0.014l-179.749 37.632c-14.071 2.951-28.695-1.466-38.819-11.743l-74.235-75.394c-10.063-10.221-25.353-13.247-38.549-7.629l-24.157 10.287c-58.182 24.851-110.853 59.89-155.754 102.945-0.348 0.335-0.688 0.675-1.022 1.024-43.339 45.144-75.526 95.162-100.24 152.976l-0.019 0.042-10.287 24.157c-5.619 13.199-2.594 28.49 7.627 38.554l75.397 74.233c0.002 0.002-0.002-0.002 0 0 10.233 10.085 14.667 24.742 11.737 38.836-0.001 0.006 0.001-0.006 0 0l-37.677 179.732c-0.003 0.013 0.003-0.013 0 0-3.057 14.298-15.676 24.526-30.272 24.526h-129.489zM265.041 202.301c-10.355 10.431-20.43 21.136-30.22 32.154-128.281 143.774-191.389 333.047-191.389 523.626v39.796c0 65.592 53.145 118.738 118.738 118.738h129.489c47.575 0 88.669-33.266 98.565-79.829l0.020-0.095 37.702-179.852c7.768-37.284-3.898-76.099-31.079-102.874l-58.469-57.567 0.954-2.237c0.005-0.014-0.005 0.009 0 0 21.546-50.395 49.076-93.058 85.907-131.547 38.761-37.050 84.145-67.193 134.279-88.609 0.005-0.005-0.009 0 0 0l2.267-0.968 57.563 58.466c26.74 27.145 65.475 38.931 102.884 31.083l179.94-37.674c46.564-9.896 79.83-50.991 79.83-98.565v-129.489c0-65.592-53.146-118.737-118.737-118.737h-39.796c-190.58 0-379.849 63.106-523.666 191.334-10.983 9.761-21.612 19.805-31.921 29.999-0.233 0.219-0.464 0.442-0.693 0.67l-1.668 1.671-0.054 0.051c-0.15 0.154-0.298 0.303-0.444 0.456z" />
<glyph unicode="&#xe908;" glyph-name="people" horiz-adv-x="1229" d="M443.904 789.337c0 45.218 17.964 88.585 49.937 120.559s75.339 49.937 120.559 49.937c45.22 0 88.586-17.963 120.559-49.937s49.937-75.341 49.937-120.559c0-45.218-17.964-88.585-49.937-120.559s-75.339-49.937-120.559-49.937c-45.22 0-88.586 17.963-120.559 49.937s-49.937 75.34-49.937 120.559zM614.4 874.5c-11.182 0-22.258-2.203-32.591-6.483s-19.719-10.553-27.628-18.461c-7.909-7.908-14.182-17.296-18.463-27.629s-6.482-21.406-6.482-32.59c0-11.184 2.202-22.258 6.482-32.591s10.554-19.721 18.463-27.629c7.909-7.908 17.295-14.181 27.628-18.461s21.408-6.483 32.591-6.483c22.586 0 44.247 8.972 60.218 24.944s24.945 37.632 24.945 60.219c0 22.586-8.974 44.248-24.945 60.219s-37.632 24.944-60.218 24.944zM870.4 746.671c0 16.809 3.311 33.454 9.745 48.983 6.431 15.53 15.858 29.64 27.744 41.526 11.889 11.886 25.999 21.314 41.527 27.747 15.531 6.432 32.174 9.743 48.985 9.743s33.454-3.311 48.985-9.743c15.527-6.433 29.638-15.861 41.527-27.747 11.885-11.886 21.313-25.997 27.747-41.526 6.431-15.53 9.742-32.174 9.742-48.983 0-33.948-13.486-66.505-37.489-90.51-24.006-24.005-56.562-37.49-90.511-37.49s-66.505 13.486-90.511 37.49c-24.003 24.005-37.489 56.562-37.489 90.51zM998.4 789.337c-11.315 0-22.17-4.495-30.17-12.497s-12.496-18.854-12.496-30.17c0-11.316 4.495-22.168 12.496-30.17s18.855-12.497 30.17-12.497c11.315 0 22.17 4.495 30.17 12.497s12.496 18.854 12.496 30.17c0 11.316-4.495 22.168-12.496 30.17s-18.855 12.497-30.17 12.497zM230.4 874.671c-33.948 0-66.505-13.486-90.51-37.49s-37.49-56.562-37.49-90.51c0-33.948 13.486-66.505 37.49-90.51s56.562-37.49 90.51-37.49c33.948 0 66.505 13.486 90.51 37.49s37.49 56.562 37.49 90.51c0 33.948-13.486 66.505-37.49 90.51s-56.562 37.49-90.51 37.49zM187.733 746.671c0 11.316 4.495 22.168 12.497 30.17s18.854 12.497 30.17 12.497c11.316 0 22.168-4.495 30.17-12.497s12.497-18.854 12.497-30.17c0-11.316-4.495-22.168-12.497-30.17s-18.854-12.497-30.17-12.497c-11.316 0-22.168 4.495-30.17 12.497s-12.497 18.854-12.497 30.17zM295.936 533.337c-15.018-25.928-22.908-55.368-22.869-85.333h-170.667v-213.333c-0.007-21.224 5.265-42.121 15.34-60.802s24.638-34.563 42.378-46.22c17.74-11.653 38.099-18.712 59.246-20.541 21.147-1.833 42.416 1.625 61.894 10.059 6.315-28.245 16.213-55.211 29.013-80.384-32.387-13.076-67.489-18.002-102.225-14.343-34.735 3.663-68.040 15.793-96.991 35.331-28.951 19.541-52.661 45.889-69.049 76.732-16.388 30.846-24.952 65.242-24.941 100.168v213.333c0 22.634 8.99 44.336 24.993 60.341 16.003 16.002 37.708 24.992 60.34 24.992h193.536zM918.528 36.782c32.386-13.076 67.488-18.002 102.226-14.343 34.734 3.663 68.038 15.793 96.99 35.331 28.952 19.541 52.661 45.889 69.048 76.732 16.387 30.846 24.951 65.242 24.941 100.168v213.333c0 22.634-8.991 44.336-24.992 60.341-16.005 16.002-37.711 24.992-60.341 24.992h-193.536c14.507-25.088 22.869-54.187 22.869-85.333h170.667v-213.333c0.007-21.224-5.263-42.121-15.34-60.802s-24.637-34.563-42.38-46.22c-17.739-11.653-38.1-18.712-59.245-20.541-21.146-1.833-42.414 1.625-61.894 10.059-6.4-28.245-16.213-55.211-29.013-80.384zM443.733 533.422c-22.63 0-44.336-8.991-60.341-24.992-16.002-16.005-24.992-37.707-24.992-60.341v-256.085c0-67.895 26.972-133.011 74.981-181.019s113.125-74.981 181.019-74.981c67.895 0 133.011 26.972 181.019 74.981s74.981 113.125 74.981 181.019v256c0 22.634-8.991 44.336-24.992 60.341-16.005 16.002-37.711 24.992-60.341 24.992l-341.333 0.085zM443.733 448.089h341.333v-256.085c0-45.264-17.981-88.672-49.988-120.678-32.003-32.007-75.414-49.988-120.678-49.988s-88.675 17.981-120.678 49.988c-32.007 32.007-49.988 75.414-49.988 120.678v256.085z" />
<glyph unicode="&#xe909;" glyph-name="laptop" horiz-adv-x="1365" d="M1152 874.667c11.315 0 22.17-4.495 30.17-12.497s12.496-18.854 12.496-30.17v-640h-1024v640c0 11.316 4.495 22.168 12.497 30.17s18.854 12.497 30.17 12.497h938.667zM213.333 960c-33.948 0-66.505-13.486-90.51-37.49s-37.49-56.562-37.49-90.51v-725.333h1194.667v725.333c0 33.948-13.486 66.505-37.492 90.51-24.003 24.005-56.559 37.49-90.508 37.49h-938.667zM0 64h1365.333c0-33.949-13.486-66.505-37.492-90.511-24.003-24.003-56.559-37.489-90.508-37.489h-1109.333c-33.948 0-66.505 13.486-90.51 37.489-24.005 24.006-37.49 56.562-37.49 90.511v0z" />
<glyph unicode="&#xe90a;" glyph-name="tuit" d="M512 931.2l-18.688-9.344-450.645-221.312v-73.344h938.667v73.344l-24.023 11.989-445.31 218.667zM512 835.2l250.668-122.667h-501.335l250.667 122.667zM128 584.533v-426.667h-42.667v-85.333h853.333v85.333h-42.667v426.667h-85.333v-426.667h-85.333v426.667h-85.333v-426.667h-85.333v426.667h-85.333v-426.667h-85.333v426.667h-85.333v-426.667h-85.333v426.667h-85.333zM0 29.867v-85.333h1024v85.333h-1024z" />
<glyph unicode="&#xe90b;" glyph-name="check" horiz-adv-x="1418" d="M1359.833 909.891c30.759-30.761 30.759-80.635 0-111.397l-835.478-835.476c-14.772-14.769-34.807-23.072-55.698-23.072s-40.926 8.302-55.699 23.072l-389.888 389.89c-30.761 30.761-30.761 80.635 0 111.396s80.635 30.762 111.397 0l334.189-334.193 779.772 779.78c30.767 30.761 80.636 30.761 111.403 0z" />
<glyph unicode="&#xe90c;" glyph-name="barsMenu" horiz-adv-x="1682" d="M73.143 960h1536c40.396 0 73.143-32.747 73.143-73.143s-32.747-73.143-73.143-73.143h-1536c-40.396 0-73.143 32.747-73.143 73.143s32.747 73.143 73.143 73.143zM73.143 521.143h1536c40.396 0 73.143-32.747 73.143-73.143s-32.747-73.143-73.143-73.143h-1536c-40.396 0-73.143 32.747-73.143 73.143s32.747 73.143 73.143 73.143zM73.143 82.286h1536c40.396 0 73.143-32.747 73.143-73.143s-32.747-73.143-73.143-73.143h-1536c-40.396 0-73.143 32.747-73.143 73.143s32.747 73.143 73.143 73.143z" />
<glyph unicode="&#xe90d;" glyph-name="instagram" d="M512 658.285c-41.59 0-82.247-12.333-116.828-35.439s-61.535-55.949-77.45-94.373c-15.916-38.425-20.081-80.706-11.967-121.498s28.141-78.261 57.551-107.673c29.409-29.408 66.878-49.434 107.67-57.549s83.073-3.949 121.498 11.968c38.424 15.917 71.265 42.867 94.375 77.45 23.104 34.582 35.437 75.238 35.437 116.829 0 55.772-22.157 109.258-61.587 148.694-39.439 39.436-92.926 61.591-148.698 61.591zM512 292.57c-30.741 0-60.792 9.12-86.351 26.195-25.56 17.080-45.482 41.354-57.246 69.756s-14.842 59.652-8.845 89.802c5.997 30.15 20.801 57.845 42.538 79.582s49.432 36.54 79.582 42.538c30.15 5.997 61.402 2.919 89.802-8.845s52.676-31.686 69.756-57.246c17.075-25.56 26.195-55.61 26.195-86.351-0.122-41.185-16.538-80.649-45.659-109.772-29.123-29.121-68.586-45.537-109.772-45.659zM713.146 896h-402.289c-65.47 0-128.259-26.008-174.554-72.303s-72.303-109.084-72.303-174.554v-402.289c0-65.466 26.008-128.256 72.303-174.554 46.295-46.291 109.084-72.301 174.554-72.301h402.289c65.466 0 128.256 26.010 174.554 72.301 46.291 46.298 72.301 109.088 72.301 174.554v402.289c0 65.47-26.010 128.259-72.301 174.554-46.298 46.294-109.088 72.303-174.554 72.303zM905.146 246.854c0-50.918-20.23-99.757-56.237-135.763s-84.845-56.237-135.763-56.237h-402.289c-50.922 0-99.757 20.23-135.764 56.237s-56.236 84.845-56.236 135.763v402.289c0 50.922 20.228 99.757 56.236 135.764s84.843 56.236 135.764 56.236h402.289c50.918 0 99.757-20.228 135.763-56.236s56.237-84.843 56.237-135.764v-402.289zM795.43 685.715c0-9.042-2.682-17.88-7.706-25.398s-12.166-13.377-20.518-16.837c-8.352-3.46-17.542-4.365-26.413-2.602-8.864 1.764-17.011 6.118-23.405 12.511s-10.746 14.539-12.512 23.407c-1.76 8.867-0.858 18.059 2.605 26.412 3.456 8.353 9.318 15.493 16.832 20.516 7.52 5.023 16.358 7.704 25.402 7.704 12.122 0 23.75-4.816 32.326-13.389 8.57-8.573 13.389-20.2 13.389-32.324z" />
<glyph unicode="&#xe90e;" glyph-name="location" horiz-adv-x="838" d="M419.463 847.545c-180.68 0-327.121-146.442-327.121-327.121 0-130.634 82.065-248.785 170.484-337.347 43.596-43.669 87.32-78.713 120.184-102.851 14.407-10.58 26.668-19.023 35.836-25.13 9.209 6.111 21.532 14.564 36.019 25.167 32.988 24.138 76.871 59.187 120.629 102.856 88.753 88.581 171.092 206.718 171.092 337.305 0 180.68-146.441 327.121-327.122 327.121zM418.811 13.638c-17.98-29.924-17.989-29.919-18.001-29.91l-0.114 0.070-0.266 0.158-0.917 0.563c-0.78 0.475-1.893 1.164-3.317 2.057-2.848 1.787-6.942 4.399-12.104 7.796-10.32 6.791-24.933 16.747-42.41 29.58-34.894 25.628-81.516 62.971-128.264 109.796-92.269 92.416-190.894 227.658-190.894 386.675 0 219.239 177.7 396.94 396.94 396.94s396.94-177.7 396.94-396.94c0-159.064-99.007-294.32-191.59-386.722-46.913-46.82-93.701-84.159-128.717-109.782-17.538-12.837-32.202-22.789-42.558-29.58-5.18-3.398-9.288-6.004-12.145-7.792-1.429-0.894-2.546-1.583-3.328-2.062l-1.187-0.721-0.084-0.047c-0.012-0.009-0.051-0.033-17.983 29.919zM418.811 13.638l17.932-29.952c-11.058-6.619-24.885-6.595-35.933 0.042l18.001 29.91zM419.463 630.271c-60.693 0-109.894-49.201-109.894-109.893 0-60.695 49.201-109.893 109.894-109.893 60.691 0 109.894 49.199 109.894 109.893 0 60.692-49.203 109.893-109.894 109.893zM239.751 520.378c0 99.252 80.46 179.712 179.712 179.712 99.254 0 179.712-80.459 179.712-179.712s-80.458-179.712-179.712-179.712c-99.252 0-179.712 80.458-179.712 179.712z" />
<glyph unicode="&#xe90f;" glyph-name="telegram" d="M996.934 879.24c-10.515 8.388-23.194 13.882-36.685 15.898-13.498 2.016-27.309 0.48-39.968-4.445l-873.657-339.466c-14.118-5.584-26.137-15.169-34.463-27.482s-12.563-26.772-12.15-41.458c0.413-14.686 5.456-28.904 14.461-40.765s21.545-20.808 35.956-25.649l188.511-62.984 102.154-325.055c0.195-0.659 0.829-1.082 1.122-1.69 1.052-2.598 2.589-4.979 4.534-7.040 2.956-3.181 6.771-5.504 11.020-6.714 0.488-0.186 0.829-0.608 1.316-0.704h0.292l0.147-0.045c3.772-0.781 7.692-0.589 11.361 0.563 0.39 0.090 0.78 0.090 1.219 0.23 3.523 1.19 6.71 3.149 9.313 5.728 0.292 0.326 0.78 0.378 1.073 0.659l146.918 156.096 214.404-159.808c13.018-9.805 29.062-15.11 45.587-15.11 35.795 0 66.662 24.122 74.022 57.773l159.059 751.772c2.701 12.762 1.747 25.99-2.752 38.273s-12.378 23.159-22.797 31.47v-0.047zM394.39 291.174l-34.474-161.312-71.923 228.94 356.685 178.814-243.657-234.57c-3.374-3.245-5.681-7.373-6.632-11.872zM815.635 67.206c-0.915-4.256-2.95-8.211-5.914-11.494-2.963-3.277-6.752-5.766-11.002-7.232-4.147-1.536-8.64-2.003-13.037-1.363s-8.538 2.374-12.026 5.024l-232.252 173.139c-4.855 3.603-10.945 5.318-17.054 4.8-6.109-0.525-11.79-3.245-15.908-7.616l-102.253-108.467 34.426 160.845 350.546 337.444c4.102 3.965 6.598 9.211 7.040 14.792s-1.203 11.13-4.646 15.645c-3.437 4.515-8.435 7.698-14.099 8.976-5.658 1.278-11.61 0.566-16.774-2.006l-505.311-253.344-190.998 63.923c-5.064 1.61-9.481 4.699-12.636 8.837s-4.891 9.121-4.967 14.254c-0.243 5.178 1.194 10.3 4.113 14.657s7.173 7.731 12.173 9.654l873.51 339.466c4.474 1.83 9.395 2.422 14.202 1.709s9.312-2.703 13.005-5.746c3.674-2.862 6.451-6.652 8.019-10.945s1.862-8.92 0.858-13.366l-159.014-751.585z" />
<glyph unicode="&#xe910;" glyph-name="atten" d="M511.997 860.389c-227.724 0-412.331-184.607-412.331-412.331 0-227.722 184.607-412.332 412.331-412.332s412.334 184.61 412.334 412.332c0 227.724-184.61 412.331-412.334 412.331zM14.333 448.058c0 274.852 222.812 497.664 497.664 497.664 274.85 0 497.667-222.812 497.667-497.664 0-274.854-222.817-497.665-497.667-497.665-274.852 0-497.664 222.811-497.664 497.665zM511.946 673.89c23.564 0 42.667-19.103 42.667-42.667v-191.033c0-23.565-19.103-42.667-42.667-42.667s-42.667 19.102-42.667 42.667v191.033c0 23.564 19.102 42.667 42.667 42.667zM534.432 301.272c20.061-12.362 26.303-38.645 13.941-58.709l-0.103-0.165c-12.361-20.065-38.646-26.305-58.707-13.943s-26.303 38.645-13.941 58.709l0.103 0.165c12.361 20.059 38.646 26.305 58.707 13.943z" />
<glyph unicode="&#xe911;" glyph-name="plus" horiz-adv-x="1103" d="M5.356 338.353v235.993h414.642v381.558h240.404v-381.558h412.436v-235.993h-412.436v-381.558h-240.404v381.558h-414.642z" />
<glyph unicode="&#xe912;" glyph-name="right1" horiz-adv-x="1067" d="M204.802 448c0 16.495 13.372 29.867 29.867 29.867h597.331c16.495 0 29.867-13.372 29.867-29.867s-13.372-29.867-29.867-29.867h-597.331c-16.495 0-29.867 13.372-29.867 29.867zM554.884 725.117c11.661 11.663 30.575 11.663 42.236 0l256-256.001c5.602-5.598 8.747-13.197 8.747-21.116 0-7.923-3.145-15.518-8.747-21.12l-256-256c-11.661-11.665-30.575-11.665-42.236 0-11.665 11.661-11.665 30.575 0 42.236l234.88 234.884-234.88 234.879c-11.665 11.663-11.665 30.574 0 42.238z" />
<glyph unicode="&#xe913;" glyph-name="search" d="M474.302 867.878c127.31 0 230.514-103.204 230.514-230.514 0-63.442-25.63-120.9-67.102-162.581-0.14-0.137-0.281-0.273-0.417-0.41-0.14-0.14-0.277-0.281-0.413-0.421-41.681-41.472-99.138-67.102-162.581-67.102-127.31 0-230.515 103.204-230.515 230.514s103.204 230.514 230.515 230.514zM696.646 455.244c40.657 49.577 65.058 113 65.058 182.12 0 158.728-128.675 287.403-287.403 287.403s-287.403-128.675-287.403-287.403 128.674-287.403 287.403-287.403c69.116 0 132.54 24.398 182.117 65.054l157.798-157.833c11.109-11.109 29.116-11.109 40.228-0.004 11.109 11.109 11.109 29.116 0.004 40.228l-157.802 157.836z" />
</font>
</defs>
</svg>
